<?xml version="1.0" encoding="UTF-8" standalone="no"?>
<svg
   xmlns:dc="http://purl.org/dc/elements/1.1/"
   xmlns:cc="http://creativecommons.org/ns#"
   xmlns:rdf="http://www.w3.org/1999/02/22-rdf-syntax-ns#"
   xmlns:svg="http://www.w3.org/2000/svg"
   xmlns="http://www.w3.org/2000/svg"
   xmlns:sodipodi="http://sodipodi.sourceforge.net/DTD/sodipodi-0.dtd"
   xmlns:inkscape="http://www.inkscape.org/namespaces/inkscape"
   id="a6dc9487-50e2-4fb9-af91-bf1b7118d463"
   data-name="Layer 1"
   width="1103.79"
   height="1103.79"
   viewBox="0 0 1103.79 1103.7901"
   version="1.1"
   sodipodi:docname="integration-2.svg"
   inkscape:version="0.92.2 5c3e80d, 2017-08-06">
  <metadata
     id="metadata204">
    <rdf:RDF>
      <cc:Work
         rdf:about="">
        <dc:format>image/svg+xml</dc:format>
        <dc:type
           rdf:resource="http://purl.org/dc/dcmitype/StillImage" />
        <dc:title>mind map</dc:title>
      </cc:Work>
    </rdf:RDF>
  </metadata>
  <sodipodi:namedview
     pagecolor="#ffffff"
     bordercolor="#666666"
     borderopacity="1"
     objecttolerance="10"
     gridtolerance="10"
     guidetolerance="10"
     inkscape:pageopacity="0"
     inkscape:pageshadow="2"
     inkscape:window-width="1156"
     inkscape:window-height="681"
     id="namedview202"
     showgrid="false"
     inkscape:zoom="0.3"
     inkscape:cx="551.89502"
     inkscape:cy="533.64593"
     inkscape:window-x="0"
     inkscape:window-y="0"
     inkscape:window-maximized="0"
     inkscape:current-layer="a6dc9487-50e2-4fb9-af91-bf1b7118d463" />
  <defs
     id="defs17">
    <linearGradient
       id="bd43dd7f-2dfd-4389-bf1e-697a1c0f972b"
       x1="891.82001"
       y1="790.71997"
       x2="891.82001"
       y2="522.90002"
       gradientUnits="userSpaceOnUse"
       gradientTransform="translate(-48.1,109.89005)">
      <stop
         offset="0"
         stop-color="gray"
         stop-opacity="0.25"
         id="stop10" />
      <stop
         offset="0.54"
         stop-color="gray"
         stop-opacity="0.12"
         id="stop12" />
      <stop
         offset="1"
         stop-color="gray"
         stop-opacity="0.1"
         id="stop14" />
    </linearGradient>
  </defs>
  <title
     id="title19">mind map</title>
  <ellipse
     cx="843.39001"
     cy="870.78998"
     rx="192"
     ry="43"
     id="ellipse21"
     style="opacity:0.1;fill:#6c63ff" />
  <g
     id="g25"
     style="opacity:0.1"
     transform="translate(0,205.99005)">
    <path
       d="m 673.12,122.89 c 0,156.1 97.93,282.41 219,282.41"
       transform="translate(-48.1,-96.1)"
       id="path23"
       inkscape:connector-curvature="0"
       style="fill:#6c63ff" />
  </g>
  <path
     d="m 627.42,336.02005 c -70.75,0.54 -138.73,-15.45 -203.73,-33.27 -65,-17.82 -129.47,-37.86 -198.79,-46.04 -44.62,-5.27 -95.4,-4.44 -130.47,16 -33.75,19.66 -43.74,51.89 -48.67,81.63 -3.71,22.38 -5.52,45.86 7.54,66.22 9.02,14.13 24.6,25.73 35.6,39.19 38.26,46.83 14.53,107.1 -23.41,155.51 -17.79,22.71 -38.6,44.5 -52.1,68.48 -13.5,23.98 -19.18,51.1 -5.79,74.6 13.28,23.28 43.54,40 76.09,51.45 66.13,23.10005 143.21,27.70005 218.26,29.16005 166.14,3.25 332.71,-6.63 498.83,-16.5 61.47,-3.66 123.22,-7.34 183.48,-17.15005 33.46,-5.45 67.92,-13.44 91.74,-30.61 30.25,-21.8 36.68,-57.11 15,-82.33 -36.37,-42.29 -133,-49.68 -159,-95.53 -14.31,-25.24 -1.57,-54.37 17,-78.92 39.94,-52.64 108.35,-100 110,-158.62 1.1,-40.25 -34,-79.28 -86.68,-96.43 -55.25,-18 -130.79,-12.79 -169.85,21.61 -40.23,35.42 -112.57,51.08 -175.05,51.55 z"
     id="path27"
     inkscape:connector-curvature="0"
     style="opacity:0.1;fill:#6c63ff" />
  <path
     d="m 946.9,237.18005 v 518.41 c 0,15.42 -14.88,28 -33.24,28 H 210.24 c -18.36,0 -33.23,-12.54 -33.23,-28 v -518.41 c 0,-15.45 14.87,-31.19 33.23,-31.19 l 703.33,1.71 c 18.33,0 33.33,14.03 33.33,29.48 z"
     id="path29"
     inkscape:connector-curvature="0"
     style="fill:#ffffff" />
  <path
     d="m 946.9,237.34005 v 24 H 177.01 v -24 a 31.35,31.35 0 0 1 31.34,-31.35 H 915.5 a 31.36,31.36 0 0 1 31.4,31.35 z"
     id="path31"
     inkscape:connector-curvature="0"
     style="fill:#3f3d56" />
  <circle
     cx="214.3"
     cy="233.66006"
     r="11.08"
     id="circle33"
     style="opacity:0.8;fill:#fa5959" />
  <circle
     cx="246.53"
     cy="233.66006"
     r="11.08"
     id="circle35"
     style="opacity:0.8;fill:#fed253" />
  <circle
     cx="278.76001"
     cy="233.66006"
     r="11.08"
     id="circle37"
     style="opacity:0.8;fill:#8ccf4d" />
  <rect
     x="457"
     y="376.69006"
     width="70.010002"
     height="33.220001"
     rx="8.5699997"
     id="rect39"
     style="opacity:0.2;fill:#6c63ff" />
  <rect
     x="598.84003"
     y="376.69006"
     width="70.010002"
     height="33.220001"
     rx="8.5699997"
     id="rect41"
     style="opacity:0.2;fill:#6c63ff" />
  <polyline
     points="491.81 203.17 561.89 294.68 634.08 202.74"
     stroke-miterlimit="10"
     id="polyline43"
     style="fill:none;stroke:#3f3d56;stroke-miterlimit:10"
     transform="translate(0,205.99005)" />
  <rect
     x="508.37"
     y="497.74005"
     width="107.03"
     height="50.790001"
     rx="8.5699997"
     id="rect45"
     style="opacity:0.1" />
  <rect
     x="510.54999"
     y="498.78009"
     width="102.68"
     height="48.73"
     rx="8.5699997"
     id="rect47"
     style="fill:#6c63ff" />
  <line
     x1="492.29001"
     y1="376.69006"
     x2="491.38"
     y2="344.34009"
     stroke-miterlimit="10"
     id="line49"
     style="fill:none;stroke:#3f3d56;stroke-miterlimit:10" />
  <polyline
     points="675.22 139.93 634.08 170.7 590.81 139.93"
     stroke-miterlimit="10"
     id="polyline51"
     style="fill:none;stroke:#3f3d56;stroke-miterlimit:10"
     transform="translate(0,205.99005)" />
  <rect
     x="456.60999"
     y="312.69006"
     width="70.010002"
     height="33.220001"
     rx="8.5699997"
     id="rect53"
     style="opacity:0.2;fill:#6c63ff" />
  <rect
     x="640.21002"
     y="312.69006"
     width="70.010002"
     height="33.220001"
     rx="8.5699997"
     id="rect55"
     style="opacity:0.2;fill:#6c63ff" />
  <rect
     x="555.81"
     y="312.69006"
     width="70.010002"
     height="33.220001"
     rx="8.5699997"
     id="rect57"
     style="opacity:0.2;fill:#6c63ff" />
  <line
     x1="561.89001"
     y1="547.50006"
     x2="561.62"
     y2="636.00006"
     stroke-miterlimit="10"
     id="line59"
     style="fill:none;stroke:#3f3d56;stroke-miterlimit:10" />
  <path
     d="M 561.43,668.48005 Z"
     stroke-miterlimit="10"
     id="path61"
     inkscape:connector-curvature="0"
     style="fill:none;stroke:#3f3d56;stroke-miterlimit:10" />
  <polyline
     points="462.42 493.11 561.42 462.48 660.82 492.89"
     stroke-miterlimit="10"
     id="polyline63"
     style="fill:none;stroke:#3f3d56;stroke-miterlimit:10"
     transform="translate(0,205.99005)" />
  <rect
     x="526.62"
     y="636.00006"
     width="70.010002"
     height="33.220001"
     rx="8.5699997"
     id="rect65"
     style="opacity:0.2;fill:#6c63ff" />
  <rect
     x="436.62006"
     y="-865.39001"
     width="70.010002"
     height="33.220001"
     rx="8.5699997"
     transform="rotate(90)"
     id="rect67"
     style="opacity:0.2;fill:#6c63ff" />
  <rect
     x="-616.26007"
     y="832.16998"
     width="70.010002"
     height="33.220001"
     rx="8.5699997"
     transform="rotate(-90)"
     id="rect69"
     style="opacity:0.2;fill:#6c63ff" />
  <rect
     x="625.82001"
     y="698.65009"
     width="70.010002"
     height="33.220001"
     rx="8.5699997"
     id="rect71"
     style="opacity:0.2;fill:#6c63ff" />
  <rect
     x="-497.43002"
     y="-731.88007"
     width="70.010002"
     height="33.220001"
     rx="8.5699997"
     transform="scale(-1)"
     id="rect73"
     style="opacity:0.2;fill:#6c63ff" />
  <rect
     x="-598.37"
     y="-731.88007"
     width="70.010002"
     height="33.220001"
     rx="8.5699997"
     transform="scale(-1)"
     id="rect75"
     style="opacity:0.2;fill:#6c63ff" />
  <line
     x1="801"
     y1="526.44006"
     x2="832.15997"
     y2="580.93005"
     stroke-miterlimit="10"
     id="line77"
     style="fill:none;stroke:#3f3d56;stroke-miterlimit:10" />
  <line
     x1="735.10999"
     y1="525.77008"
     x2="767.82001"
     y2="525.77008"
     stroke-miterlimit="10"
     id="line79"
     style="fill:none;stroke:#3f3d56;stroke-miterlimit:10" />
  <line
     x1="613.22998"
     y1="523.14008"
     x2="702.51001"
     y2="525.77008"
     stroke-miterlimit="10"
     id="line81"
     style="fill:none;stroke:#3f3d56;stroke-miterlimit:10" />
  <line
     x1="832.15997"
     y1="471.62006"
     x2="801.15002"
     y2="526.20007"
     stroke-miterlimit="10"
     id="line83"
     style="fill:none;stroke:#3f3d56;stroke-miterlimit:10" />
  <rect
     x="490.56006"
     y="-735.72998"
     width="70.010002"
     height="33.220001"
     rx="8.5699997"
     transform="rotate(90)"
     id="rect85"
     style="opacity:0.2;fill:#6c63ff" />
  <rect
     x="491.43005"
     y="-801"
     width="70.010002"
     height="33.220001"
     rx="8.5699997"
     transform="rotate(90)"
     id="rect87"
     style="opacity:0.2;fill:#6c63ff" />
  <rect
     x="436.61005"
     y="-291.61002"
     width="70.010002"
     height="33.220001"
     rx="8.5699997"
     transform="rotate(90)"
     id="rect89"
     style="opacity:0.2;fill:#6c63ff" />
  <rect
     x="-616.26007"
     y="258.39001"
     width="70.010002"
     height="33.220001"
     rx="8.5699997"
     transform="rotate(-90)"
     id="rect91"
     style="opacity:0.2;fill:#6c63ff" />
  <line
     x1="322.78"
     y1="526.44006"
     x2="291.60999"
     y2="580.93005"
     stroke-miterlimit="10"
     id="line93"
     style="fill:none;stroke:#3f3d56;stroke-miterlimit:10" />
  <line
     x1="388.66"
     y1="525.77008"
     x2="355.95999"
     y2="525.77008"
     stroke-miterlimit="10"
     id="line95"
     style="fill:none;stroke:#3f3d56;stroke-miterlimit:10" />
  <line
     x1="510.54999"
     y1="523.14008"
     x2="421.26999"
     y2="525.77008"
     stroke-miterlimit="10"
     id="line97"
     style="fill:none;stroke:#3f3d56;stroke-miterlimit:10" />
  <line
     x1="291.60999"
     y1="471.62006"
     x2="322.62"
     y2="526.20007"
     stroke-miterlimit="10"
     id="line99"
     style="fill:none;stroke:#3f3d56;stroke-miterlimit:10" />
  <rect
     x="490.57007"
     y="-421.26999"
     width="70.010002"
     height="33.220001"
     rx="8.5699997"
     transform="rotate(90)"
     id="rect101"
     style="opacity:0.2;fill:#6c63ff" />
  <rect
     x="491.43005"
     y="-356"
     width="70.010002"
     height="33.220001"
     rx="8.5699997"
     transform="rotate(90)"
     id="rect103"
     style="opacity:0.2;fill:#6c63ff" />
  <path
     d="m 108.02,707.89005 c 0,50.24 31.52,90.9 70.47,90.9"
     id="path105"
     inkscape:connector-curvature="0"
     style="fill:#46455b" />
  <path
     d="m 178.49,798.78005 c 0,-50.81 35.18,-91.92 78.65,-91.92"
     id="path107"
     inkscape:connector-curvature="0"
     style="fill:#6c63ff" />
  <path
     d="m 133.56,712.44005 c 0,47.72 20.1,86.34 44.93,86.34"
     id="path109"
     inkscape:connector-curvature="0"
     style="fill:#6c63ff" />
  <path
     d="m 178.49,798.78005 c 0,-64.92 40.66,-117.45 90.9,-117.45"
     id="path111"
     inkscape:connector-curvature="0"
     style="fill:#46455b" />
  <ellipse
     cx="175.42999"
     cy="813.18011"
     rx="17.52"
     ry="2.96"
     id="ellipse113"
     style="opacity:0.1;fill:#6c63ff" />
  <path
     d="m 163.67,799.42005 c 0,0 10,-0.31 13,-2.45 3,-2.14 15.37,-4.71 16.12,-1.27 0.75,3.44 15,17.11005 3.73,17.20005 -11.27,0.09 -26.22,-1.76 -29.22,-3.59005 -3,-1.83 -3.63,-9.89 -3.63,-9.89 z"
     id="path115"
     inkscape:connector-curvature="0"
     style="fill:#a8a8a8" />
  <path
     d="m 196.73,811.7001 c -11.28,0.09 -26.21,-1.75005 -29.22,-3.59005 -2.29,-1.39 -3.2,-6.39 -3.51,-8.7 h -0.33 c 0,0 0.63,8.06 3.64,9.89 3.01,1.83005 17.94,3.68005 29.22,3.59005 3.26,0 4.38,-1.19 4.32,-2.90005 -0.45,1.05005 -1.69,1.69005 -4.12,1.71005 z"
     id="path117"
     inkscape:connector-curvature="0"
     style="opacity:0.2" />
  <path
     d="m 956.22,854.7801 -27.67,-40.12 c 0,0 -0.52,-9.93005 -2.33,-12.26005 -1.81,-2.33 -0.39,-7.48 -0.39,-7.48 0,0 1.94,-2.84 0.26,-3.09 -1.68,-0.25 -0.26,-6.58 -0.26,-6.58 l -0.13,-10.07 c 0,0 1.55,-9.67 0.26,-12 a 3.82,3.82 0 0 1 0.13,-4.13 c 0,0 1.55,-5.55 0,-7 -1.55,-1.45 -1.17,-10.06 -0.78,-16.89 0.39,-6.83 -2.71,-10.71 -2.71,-11.74 0,-1.03 -10.22,-11.1 -10.22,-12 0,-0.9 -6.46,-4.64 -10.34,-5.68 -3.88,-1.04 -5.82,-1.8 -5.69,-2.32 0.13,-0.52 -6.08,-2.58 -6.08,-2.58 0,0 -5.43,-0.38 -7.5,-3.09 -2.07,-2.71 -8.4,-3.5 -8.57,-3.52 0,-0.18 -0.09,-0.36 -0.12,-0.54 l -0.12,-0.58 c 0.49,-0.82 0.94,-1.66 1.35,-2.53 l 0.36,-0.79 a 11,11 0 0 0 6.36,-2 8.7,8.7 0 0 0 3.1,-6.19 13.6,13.6 0 0 0 -1.51,-6.87 c -1.14,-2.33 -2.8,-4.73 -2.23,-7.25 0.25,-1.09 0.9,-2 1.24,-3.11 a 8.19,8.19 0 0 0 -0.93,-6.11 c -1,-1.87 -2.34,-3.52 -3.43,-5.34 a 20.73,20.73 0 0 1 -2.73,-7.54 11.88,11.88 0 0 0 -1,-4.11 7.62,7.62 0 0 0 -2.27,-2.29 22.65,22.65 0 0 0 -13.9,-4.21 c -3.52,0.12 -7,1.07 -10.52,0.64 a 38.93,38.93 0 0 1 -6.15,-1.61 c -4.33,-1.28 -9.34,-1.81 -13.11,0.67 -3.77,2.48 -5.28,7.36 -7.84,11.18 -2.27,3.38 -5.58,6.21 -7.3,9.79 0,-0.07 0,-0.14 0.05,-0.21 a 12.35,12.35 0 0 0 -1,2.61 c -0.66,2.81 -0.11,5.75 0.57,8.55 0.36,1.45 0.84,3 2.09,3.82 1.25,0.82 3,0.63 4.52,0.89 -0.06,0.25 -0.12,0.49 -0.17,0.74 a 29.5,29.5 0 0 0 20.5,34.45 c 0,0.26 0,0.53 0,0.78 0,0.77 -0.06,1.51 -0.14,2.22 v 0 c 0,0 -13,-2.67 -16.49,-0.87 -3.49,1.8 -10.35,3.23 -11.38,4.26 -1.03,1.03 -3.62,0.26 -5.95,6.32 -2.33,6.06 -2.58,12.26 -5.56,15.09 -2.98,2.83 -4.52,4.78 -4.65,6.84 -0.13,2.06 0.38,2.58 -0.78,3.23 -1.16,0.65 -2.84,3.35 -2.33,4.38 0,0 0.65,2.58 -1.42,3.87 a 4.31,4.31 0 0 0 -1.81,3.87 c 0,0 -0.78,2.84 -2.59,3.48 -1.81,0.64 -3,4.91 -3,4.91 l -5.86,6.74 -11.63,-12.86 a 4.9,4.9 0 0 0 -6.91,-0.35 l -5.61,5.2 a 11.24,11.24 0 0 0 -5.71,3.4 15,15 0 0 0 -3,4.4 l -3.12,2.82 a 4.8,4.8 0 0 0 -1.61,3.44 4.85,4.85 0 0 0 0.81,5.32 l 7.44,8.24 v 0.07 a 13,13 0 0 0 -7.2,2.93 c -11.12,9.8 -11.25,18.83005 -9.57,23.00005 1.68,4.17 15.77,20 15.77,20 0,0 8.19,10.65 20,16.31 v 0 l -0.08,0.09 c -0.24,0.25 -0.47,0.52 -0.7,0.81 l -0.19,0.25 -0.18,0.25 -0.21,0.31 -0.16,0.25 -0.23,0.37 a 2,2 0 0 1 -0.14,0.25 c -0.09,0.16 -0.18,0.33 -0.26,0.5 l -0.09,0.17 c -0.11,0.22 -0.21,0.46 -0.32,0.7 -0.11,0.24 -0.07,0.18 -0.1,0.26 -0.03,0.08 -0.14,0.34 -0.2,0.52 l -0.12,0.33 c -0.06,0.16 -0.11,0.33 -0.17,0.5 -0.06,0.17 -0.07,0.24 -0.11,0.37 l -0.15,0.56 -0.09,0.35 c -0.08,0.3 -0.14,0.61 -0.21,0.93 l -0.06,0.37 c 0,0.21 -0.08,0.43 -0.11,0.66 -0.03,0.23 -0.05,0.31 -0.07,0.47 -0.02,0.16 0,0.42 -0.08,0.64 -0.08,0.22 0,0.33 -0.05,0.49 -0.05,0.16 0,0.49 0,0.74 0,0.25 0,0.29 0,0.45 0,0.4 0,0.82 -0.05,1.25 -0.26,15.09 0.62,17.28 0.62,17.28 0,0 1.83,4.81 6.87,5.15 a 8.93,8.93 0 0 0 2.21,-0.12 c 6.72,-1.16 22.5,-3.87 28.06,-2.83 3.34,0.62 9.53,-0.3 13.93,-1.13 l 1.17,-0.23 0.8,2.57 2.56,-0.7 2.17,1.25 1.37,0.79 c 2.55,8.65 12.91,5.7 12.91,5.7 l 2.46,1.42 25,0.64 a 50.53,50.53 0 0 0 8.84,4.25 8.88,8.88 0 0 0 1.25,0.27 57.46,57.46 0 0 0 6.95,0.13 c 1.92,0 3.4,-0.13 3.4,-0.13 0,0 -0.26,-6.77 -0.62,-14.36 9.53,-0.4 18,-1 23.11,-1.89 13.26,-2.34 18.81,-14.5 20.86,-20.98 a 60.65,60.65 0 0 1 1.3,8 58.61,58.61 0 0 0 2.07,7 23.67,23.67 0 0 0 2.85,5.16 c 9.83,-3.35 3.88,-8.38 1.81,-10.57 -2.07,-2.19 1.42,-4 1.42,-4 0,0 2.72,-1.81 2.46,-3.49 -0.26,-1.68 -0.39,-3.48 8.4,-3.35 8.79,0.13 8.41,-7.22 8.41,-7.22 z M 819.68,772.41005 c 0.11,0.74 1.34,8.68 2.45,10.77 a 14.37,14.37 0 0 1 0.29,4.25 c -5.21,-0.41 -10.64,-0.64 -10.64,-0.64 a 1.24,1.24 0 0 1 0.28,0.67 l -0.82,-0.19 c -0.38,-0.09 -0.78,-0.18 -1.19,-0.29 l 9.6,-14.59 z m -19,30.25 9,1.43 0.76,0.12 a 30.29,30.29 0 0 0 -0.47,4.26 c 0,0.13 0.2,0.29 0.49,0.48 a 11.67,11.67 0 0 0 -0.17,2.13005 c 0.14,0.72 4.36,2.26 9.2,3.54 -0.07,0.26 -0.14,0.5 -0.2,0.74 v 0 c -4.27,-2.25 -11,-3.3 -11.78,-5 -0.78,-1.70005 -23.61,-9.63005 -23.61,-9.63005 0,0 -0.84,-0.45 -2.28,-1.14 l 6,1.14 1.66,-0.17 a 89.92,89.92 0 0 0 11.38,2.1 z"
     id="path119"
     inkscape:connector-curvature="0"
     style="fill:url(#bd43dd7f-2dfd-4389-bf1e-697a1c0f972b)" />
  <path
     d="m 926.79,860.3901 c 0,0 -3.59,21.65 -21.79,24.86 -18.2,3.21 -78.94,2.56 -78.94,2.56 0,0 -34.73,-5 -47.29,-34.34 -12.56,-29.34 -20.63,-41 -9.87,-41.53 10.76,-0.53 68.82,19.61 72.15,19.87 3.33,0.26 88.94,-44.60005 85.74,28.58 z"
     id="path121"
     inkscape:connector-curvature="0"
     style="fill:#65617d" />
  <path
     d="m 926.79,860.3901 c 0,0 -3.59,21.65 -21.79,24.86 -18.2,3.21 -78.94,2.56 -78.94,2.56 0,0 -34.73,-5 -47.29,-34.34 -12.56,-29.34 -20.63,-41 -9.87,-41.53 10.76,-0.53 68.82,19.61 72.15,19.87 3.33,0.26 88.94,-44.60005 85.74,28.58 z"
     id="path123"
     inkscape:connector-curvature="0"
     style="opacity:0.05" />
  <path
     d="m 763.9,884.4801 c 0,0 1.81,4.77 6.8,5.12 a 8.77,8.77 0 0 0 2.19,-0.12 c 6.67,-1.16 22.3,-3.85 27.81,-2.82 3.32,0.61 9.45,-0.3 13.82,-1.12 2.9,-0.55 5,-1.06 5,-1.06 0,0 -5.12,-17 -5.77,-17.56 -0.65,-0.56 -23.06,-14 -23.06,-14 l -17.79,-1.24 v 0 a 9.39,9.39 0 0 0 -6,3.54 c -1.87,2.27 -3.48,6 -3.59,12.1 -0.31,14.98 0.59,17.16 0.59,17.16 z"
     id="path125"
     inkscape:connector-curvature="0"
     style="fill:#3f3d56" />
  <path
     d="m 763.9,884.4801 c 0,0 1.81,4.77 6.8,5.12 a 73.93,73.93 0 0 1 -4.82,-7 l 0.09,-12.43 a 21.89,21.89 0 0 1 7,-18.45 h -0.07 c 0,0 -9.35,0.64 -9.61,15.64 -0.26,15 0.61,17.12 0.61,17.12 z"
     id="path127"
     inkscape:connector-curvature="0"
     style="opacity:0.05" />
  <path
     d="m 840.9,857.3101 16.53,-12.94 26,-25.63 c 0,0 -2.81,-0.14 -7.05,-0.32 -1,0.67 -4,2.78 -4.12,5.35 -0.12,3.14 -7,0.22 -10.62,2 -3.62,1.78 -21.1,24.28 -24.18,24.12 -3.08,-0.16 -5.51,-1.56 -6.79,0.62 l -0.09,0.14 z"
     id="path129"
     inkscape:connector-curvature="0"
     style="opacity:0.1" />
  <path
     d="m 766.9,855.2101 c 0.59,0.28 1.19,0.56 1.79,0.82 12.56,5.38 28.07,16.66 29.22,18.71 0.71,1.25 9.7,6.71 16.64,10.8 2.9,-0.55 5,-1.06 5,-1.06 0,0 -5.12,-17 -5.77,-17.56 -0.65,-0.56 -23.06,-14 -23.06,-14 l -17.82,-1.24 v 0 a 9.39,9.39 0 0 0 -6,3.53 z"
     id="path131"
     inkscape:connector-curvature="0"
     style="opacity:0.1" />
  <path
     d="m 731.99,818.4801 c 1.67,4.1 15.64,19.86 15.64,19.86 0,0 8.84,11.54 21.4,16.92 12.56,5.38 28.06,16.66 29.22,18.71 0.74,1.32 10.75,7.35 17.8,11.49 l 1.58,0.92 3.5,2 1.85,1.07 c 0,0 4.29,-3.45 8.57,-6.92 4.28,-3.47 8.41,-6.86 8.48,-7 0.12,-0.38 1.79,-4.74 1.4,-5 -0.2,-0.13 -1.08,-1.91 -2.69,-4 a 18.25,18.25 0 0 0 -6.53,-5.4 c -5.9,-2.69 -8.46,-8.82 -8.46,-8.82 0,0 -0.56,-0.4 -1.41,-0.94 a 17.09,17.09 0 0 0 -5.77,-2.57 c -2.82,-0.35 -8.07,-6.12 -8.07,-6.12 0,0 -3.59,-2.31 -5,-5.25 -1.41,-2.94 -21.22,-16.46 -23.06,-17.73 l 48.18,30.95 11.53,7.41 16.54,-12.94 26,-25.63 c 0,0 -3.5,-0.17 -8.58,-0.39 -12.65,-0.55 -35.1,-1.41 -37.94,-0.77 a 21.45,21.45 0 0 1 -7,0.46 c 0,0 -6.4,0.29 -10.63,-1.94 -4.23,-2.23 -10.9,-3.28 -11.67,-4.93 -0.77,-1.65 -23.45,-9.61005 -23.45,-9.61005 0,0 -30.88,-16.4 -41.91,-6.66 -11.03,9.74 -11.18,18.73005 -9.52,22.83005 z"
     id="path133"
     inkscape:connector-curvature="0"
     style="fill:#65617d" />
  <path
     d="m 831.57,724.42005 4,13.19 5.13,29.74 18.83,1.28 5.46,-9 5.44,-9 c 0,0 3.39,-12 5.83,-23.64 2.15,-10.28 3.56,-20.26 1.22,-21.34 -2.08,-1 -3.45,-4.43 -4.34,-8.15 -0.11,-0.46 -0.22,-0.93 -0.31,-1.39 a 73.86,73.86 0 0 1 -1.25,-9.56 c 0,0 -39.47,-2.05 -34,14.23 a 25.82,25.82 0 0 1 1.49,8.65 21.8,21.8 0 0 1 -0.14,2.2 18.45,18.45 0 0 1 -7.36,12.79 z"
     id="path135"
     inkscape:connector-curvature="0"
     style="fill:#ee8e9e" />
  <path
     d="m 823.36,722.24005 1.42,22.42 3.2,19.1 3.59,8.84 3.2,48.38005 c 0,0 30.9,3.57 38.42,-0.06 a 3.33,3.33 0 0 0 1.36,-1.07 c 9.07,-13.70005 6.1,-53.40005 6.1,-53.40005 l 3.46,-25.63 -2.31,-13.3 -5.57,-0.6 -4.29,-0.45 c 0,0 -1,1.19 -2.37,3 -3.8,5 -10.79,14.88 -10.32,19 0.64,5.64 -0.77,11.4 -3,12.3 -2.23,0.9 -4,2.44 -4.35,0.9 -0.35,-1.54 -0.77,-1.92 -0.39,-4.1 0.38,-2.18 -1.67,-8.85 -1.67,-8.85 0,0 -3.46,-7.81 -3.2,-11.15 0.26,-3.34 -0.38,-7.17 -1.41,-8.07 -1.03,-0.9 -2.43,-1.79 -1.28,-5.89 1.15,-4.1 -5.05,-12.05 -5.05,-12.05 z"
     id="path137"
     inkscape:connector-curvature="0"
     style="fill:#e3e8f4" />
  <path
     d="m 864.18,778.25005 1.29,38.32005 7.4,4.1 a 3.4,3.4 0 0 0 1.36,-1.06 c 9.07,-13.71005 6.1,-53.41005 6.1,-53.41005 l 3.46,-25.63 -2.31,-13.3 -5.57,-0.6 c 2.15,-10.28 3.56,-20.26 1.22,-21.34 -2.08,-1 -3.45,-4.43 -4.34,-8.15 v 0 l -4,27.11 c 0,0 0.33,2.45 0.45,5 a 14.26,14.26 0 0 1 -0.32,4.77 c -0.9,2.31 -0.26,6.41 -0.26,6.41 -2.31,4.07 -3.47,11.61 -4,18.89 -0.76,9.66 -0.48,18.89 -0.48,18.89 z"
     id="path139"
     inkscape:connector-curvature="0"
     style="opacity:0.1" />
  <path
     d="m 872.9,696.57005 c 0,0 6.46,0.8 8.51,3.5 2.05,2.7 7.43,3.07 7.43,3.07 0,0 6.15,2 6,2.56 -0.15,0.56 1.79,1.29 5.63,2.31 3.84,1.02 10.26,4.74 10.26,5.64 0,0.9 10.17,10.89 10.17,11.92 0,1.03 3.08,4.87 2.69,11.66 -0.39,6.79 -0.77,15.38 0.77,16.79 1.54,1.41 0,6.92 0,6.92 a 3.78,3.78 0 0 0 -0.13,4.1 c 1.28,2.31 -0.25,11.92 -0.25,11.92 l 0.12,10 c 0,0 -1.41,6.28 0.26,6.54 1.67,0.26 -0.26,3.08 -0.26,3.08 0,0 -1.41,5.12 0.39,7.43 1.8,2.31 2.31,12.17005 2.31,12.17005 l 27.42,39.86 c 0,0 0.39,7.3 -8.33,7.18 -8.72,-0.12 -8.59,1.66 -8.33,3.33 0.26,1.67 -2.43,3.46 -2.43,3.46 0,0 -3.46,1.79 -1.41,4 2.05,2.21 7.94,7.18 -1.8,10.51 a 23.76,23.76 0 0 1 -2.82,-5.13 58,58 0 0 1 -2.05,-6.92 c 0,0 -0.9,-9.74 -2.69,-11 -1.79,-1.26 -1.54,-7.43 -1.54,-7.43 0,0 2.57,-5 -1,-7.05 -3.57,-2.05 -55.62,-30.89 -55.62,-30.89 l -1.3,-38.37005 c 0,0 -0.9,-28.32 4.48,-37.81 0,0 -0.64,-4.1 0.26,-6.41 0.9,-2.31 -0.13,-9.74 -0.13,-9.74 z"
     id="path141"
     inkscape:connector-curvature="0"
     style="fill:#3f3d56" />
  <path
     d="m 839.33,711.95005 c 0,0 -12.89,-2.66 -16.35,-0.86 -3.46,1.8 -10.25,3.2 -11.28,4.23 -1.03,1.03 -3.58,0.25 -5.89,6.28 -2.31,6.03 -2.56,12.17 -5.51,15 -2.95,2.83 -4.49,4.74 -4.62,6.79 -0.13,2.05 0.39,2.56 -0.76,3.21 -1.15,0.65 -2.82,3.33 -2.31,4.35 0.51,1.02 26.65,23.58 26.65,23.58 0,0 1.29,8.59 2.44,10.77 1.15,2.18 -1.28,32.16005 -3.84,34.22005 -2.56,2.06 17.3,1.86 17.3,1.86 0,0 0.89,-19.68005 1.66,-20.70005 0.77,-1.02 -0.51,-22 -0.51,-22 0,0 -0.13,-17.94 1.54,-22.68 1.67,-4.74 1.48,-20.5 1.48,-20.5 0,0 1.47,-9.46 3.26,-11.67 1.79,-2.21 -3.26,-11.88 -3.26,-11.88 z"
     id="path143"
     inkscape:connector-curvature="0"
     style="opacity:0.1" />
  <path
     d="m 838.9,711.56005 c 0,0 -12.88,-2.65 -16.34,-0.86 -3.46,1.79 -10.22,3.19 -11.24,4.19 -1.02,1 -3.59,0.26 -5.9,6.28 -2.31,6.02 -2.56,12.18 -5.51,15 -2.95,2.82 -4.48,4.74 -4.61,6.79 -0.13,2.05 0.38,2.56 -0.77,3.2 -1.15,0.64 -2.82,3.33 -2.31,4.36 0.51,1.03 26.68,23.62 26.68,23.62 0,0 1.28,8.58 2.44,10.76 1.16,2.18 -1.29,32.17005 -3.85,34.22005 -2.56,2.05 17.3,1.86 17.3,1.86 0,0 0.9,-19.67005 1.67,-20.70005 0.77,-1.03 -0.52,-22 -0.52,-22 0,0 -0.12,-17.94 1.54,-22.68 1.66,-4.74 1.42,-20.55 1.42,-20.55 0,0 1.47,-9.46 3.26,-11.66 1.79,-2.2 -3.26,-11.83 -3.26,-11.83 z"
     id="path145"
     inkscape:connector-curvature="0"
     style="fill:#3f3d56" />
  <path
     d="m 837.59,700.71005 a 25.82,25.82 0 0 1 1.49,8.65 29.36,29.36 0 0 0 33.72,-13.32 73.86,73.86 0 0 1 -1.25,-9.56 c 0,0 -39.47,-2.05 -33.96,14.23 z"
     id="path147"
     inkscape:connector-curvature="0"
     style="opacity:0.1" />
  <path
     d="m 818.11,680.46005 a 29.35,29.35 0 1 0 0.64,-6.1 29.35,29.35 0 0 0 -0.64,6.1 z"
     id="path149"
     inkscape:connector-curvature="0"
     style="fill:#ee8e9e" />
  <path
     d="m 799.27,748.38005 -7,2.18 c 0,0 0.65,2.56 -1.41,3.84 a 4.29,4.29 0 0 0 -1.79,3.85 c 0,0 -0.77,2.82 -2.56,3.46 -1.79,0.64 -2.95,4.87 -2.95,4.87 l -5.9,6.79 c 0,0 -2.17,1.79 -1.79,2.69 0.38,0.9 -2.31,1.15 -2.31,1.15 l 1.34,22.82 12.18,2.3 7.56,-0.77 6.15,-2.3 5.38,-3.21 2.44,-6.28 10.76,-16.4 z"
     id="path151"
     inkscape:connector-curvature="0"
     style="fill:#3f3d56" />
  <path
     d="m 775.31,779.01005 c 0,0 -15.64,-22.56 -27.3,-10.38 -11.66,12.18 4.74,31.91 8.59,31.27 3.85,-0.64 22.17,-1.67 22.17,-1.67 z"
     id="path153"
     inkscape:connector-curvature="0"
     style="fill:#ee8e9e" />
  <rect
     x="993.38708"
     y="315.98993"
     width="81.830002"
     height="63.540001"
     rx="1.54"
     transform="rotate(27.04)"
     id="rect155"
     style="fill:#3f3d56" />
  <rect
     x="999.96313"
     y="321.72015"
     width="68.779999"
     height="51.830002"
     transform="rotate(27.04)"
     id="rect157"
     style="fill:#6c63ff" />
  <circle
     cx="730.29999"
     cy="762.99005"
     r="1.13"
     id="circle159"
     style="fill:#e6e8ec" />
  <circle
     cx="796.60999"
     cy="796.96002"
     r="1.86"
     id="circle161"
     style="fill:#e6e8ec" />
  <path
     d="m 765.18,783.75005 c -0.12,16.92 34.86,20.5 34.86,20.5 l 8.94,1.42 4,0.64 1.67,-16.54 c 0,0 -1.83,-0.27 -4.12,-0.8 -3.39,-0.79 -7.78,-2.16 -8.7,-4.07 -1.53,-3.2 -36.52,-18.07 -36.65,-1.15 z"
     id="path163"
     inkscape:connector-curvature="0"
     style="fill:#ee8e9e" />
  <path
     d="m 818.75,674.36005 a 3.41,3.41 0 0 1 2.15,1 c 1,1.05 1,2.91 2.33,3.55 a 2.58,2.58 0 0 0 1.53,0.18 c 3.41,-0.48 5.38,-4.33 8.65,-5.39 a 8.67,8.67 0 0 1 5.73,0.5 4.18,4.18 0 0 1 1.9,1.21 c 1.1,1.42 0.33,3.51 0.84,5.22 0.7,2.38 3.54,3.33 6,3.64 2.46,0.31 5.23,0.48 6.88,2.34 a 6.27,6.27 0 0 1 1.22,5 3.91,3.91 0 0 0 0,1.83 c 0.68,1.93 4,1.64 4.87,0.12 0.64,-1.1 0.45,-2 1.94,-2.32 a 6.32,6.32 0 0 1 3.14,0.54 23.08,23.08 0 0 0 8.11,1.24 29.35,29.35 0 1 0 -55.27,-18.58 z"
     id="path165"
     inkscape:connector-curvature="0"
     style="opacity:0.1" />
  <path
     d="m 855.96,692.60005 a 4,4 0 0 1 0,-1.84 6.27,6.27 0 0 0 -1.22,-5 c -1.65,-1.86 -4.42,-2 -6.88,-2.34 -2.46,-0.34 -5.3,-1.26 -6,-3.64 -0.51,-1.71 0.26,-3.8 -0.84,-5.21 a 4.14,4.14 0 0 0 -1.9,-1.22 8.67,8.67 0 0 0 -5.73,-0.5 c -3.27,1.06 -5.24,4.91 -8.65,5.39 a 2.58,2.58 0 0 1 -1.53,-0.18 c -1.29,-0.64 -1.34,-2.5 -2.33,-3.55 -1.56,-1.65 -4.51,-0.58 -6.42,-1.81 -1.24,-0.8 -1.72,-2.36 -2.07,-3.79 -0.67,-2.79 -1.22,-5.71 -0.56,-8.5 1.11,-4.77 5.37,-8 8.09,-12.11 2.54,-3.79 4,-8.59 7.77,-11.11 3.77,-2.52 8.7,-1.94 13,-0.66 a 37.88,37.88 0 0 0 6.09,1.59 c 3.46,0.43 6.94,-0.51 10.43,-0.63 a 22.46,22.46 0 0 1 13.77,4.18 7.64,7.64 0 0 1 2.25,2.28 11.49,11.49 0 0 1 1,4.08 20.82,20.82 0 0 0 2.71,7.5 c 1.07,1.8 2.43,3.43 3.4,5.3 a 8.18,8.18 0 0 1 0.92,6.07 c -0.33,1.05 -1,2 -1.23,3.09 -0.57,2.5 1.08,4.89 2.21,7.2 a 13.55,13.55 0 0 1 1.5,6.83 8.61,8.61 0 0 1 -3.08,6.14 11,11 0 0 1 -6.49,2 23,23 0 0 1 -8.27,-1.27 6.32,6.32 0 0 0 -3.14,-0.54 c -1.49,0.3 -1.3,1.22 -1.94,2.32 -0.86,1.56 -4.18,1.85 -4.86,-0.07 z"
     id="path167"
     inkscape:connector-curvature="0"
     style="fill:#3f3d56" />
  <path
     d="m 840.15,858.0801 16.54,-12.94 26,-25.63 c 0,0 -3.5,-0.17 -8.58,-0.39 a 5.63,5.63 0 0 0 -1.82,3.5 c -0.12,3.13 -7,0.22 -10.62,2 -3.62,1.78 -21.13,24.27 -24.21,24.13 -3.08,-0.14 -5.51,-1.56 -6.79,0.62 l -0.09,0.14 a 3.68,3.68 0 0 1 -2,1.16 z"
     id="path169"
     inkscape:connector-curvature="0"
     style="opacity:0.1" />
  <path
     d="m 806.83,857.1801 8.31,26.52 1.3,4.16 4,-1.08 8.72,-2.4 38.84,-10.67 a 33.62,33.62 0 0 0 14,-3.73 42.44,42.44 0 0 1 24.14,-5.26 c 5.13,0.48 10.84,-1.73 15.58,-10.49 0,0 10.76,-31.78 -16.41,-40.88 -27.17,-9.10005 -28.46,4.84 -28.46,4.84 l -0.37,0.23 c -1,0.67 -4,2.78 -4.12,5.35 -0.12,3.14 -7,0.22 -10.62,2 -3.62,1.78 -21.2,24.28 -24.28,24.12 -3.08,-0.16 -5.51,-1.56 -6.79,0.62 l -0.09,0.14 c -0.95,1.31 -3.81,1.61 -5.69,1.67 -1,0 -1.78,0 -1.78,0 l -0.24,0.07 -2,0.59 z"
     id="path171"
     inkscape:connector-curvature="0"
     style="fill:#65617d" />
  <path
     d="m 808.98,805.67005 4,0.64 1.67,-16.54 c 0,0 -1.83,-0.27 -4.12,-0.8 0.6,2.3 -0.77,11.22 -1.55,16.7 z"
     id="path173"
     inkscape:connector-curvature="0"
     style="opacity:0.1" />
  <path
     d="m 913.77,728.42005 c 0,0 11.92,-3.46 9,30.38 -2.92,33.84 -25,55.23005 -25,55.23005 0,0 -25.37,11.15 -36.78,9.36 a 198.28,198.28 0 0 0 -19.73,-2.18 29,29 0 0 0 -11.54,-3.08 c -6.4,-0.25 -19.86,-4.23 -20.12,-5.51 -0.26,-1.28 3.34,-20.12005 1.8,-21.53005 0,0 17.94,0.74 19.73,2 1.79,1.26 4.36,0.37 6.28,0 1.92,-0.37 7.82,-5.49 19.48,-1 0,0 4,0.38 5.51,-0.64 1.51,-1.02 4,-0.26 4,-0.26 a 11.49,11.49 0 0 0 2.79,-1.41 c 0.38,-0.51 3.46,0 3.46,0 a 1.36,1.36 0 0 0 1.92,-0.9 8.34,8.34 0 0 1 1.79,-2.82 c 0,0 3.46,-19.48 10,-26.78 0,0 1.92,-1.67 1.41,-3.72 -0.51,-2.05 10.62,-31.24 26,-27.14 z"
     id="path175"
     inkscape:connector-curvature="0"
     style="opacity:0.1" />
  <path
     d="m 913.46,725.82005 c 0,0 11.92,-3.46 9,30.38 -2.92,33.84 -25,55.23005 -25,55.23005 0,0 -25.38,11.15 -36.78,9.36 -11.4,-1.79 -19.78,-2.18 -19.78,-2.18 a 29,29 0 0 0 -11.53,-3.08 c -6.41,-0.25 -19.86,-4.23 -20.12,-5.51 -0.26,-1.28005 3.33,-20.12005 1.79,-21.53005 0,0 17.94,0.74 19.74,2 1.8,1.26 4.36,0.36 6.28,0 1.92,-0.36 7.82,-5.5 19.48,-1 0,0 4,0.38 5.51,-0.64 1.51,-1.02 4,-0.26 4,-0.26 a 11.29,11.29 0 0 0 2.78,-1.41 c 0.38,-0.51 3.46,0 3.46,0 a 1.36,1.36 0 0 0 1.92,-0.9 8.59,8.59 0 0 1 1.8,-2.82 c 0,0 3.46,-19.48 10,-26.78 0,0 1.93,-1.67 1.41,-3.72 -0.52,-2.05 10.66,-31.24 26.04,-27.14 z"
     id="path177"
     inkscape:connector-curvature="0"
     style="fill:#3f3d56" />
  <path
     d="m 820.9,852.9701 16.92,20.48 c 0.07,-0.06 0.11,-0.1 0.11,-0.12 0.13,-0.38 1.79,-4.74 1.41,-5 -0.38,-0.26 -3.33,-6.67 -9.23,-9.36 a 17.49,17.49 0 0 1 -7.24,-6.6 z"
     id="path179"
     inkscape:connector-curvature="0"
     style="opacity:0.1" />
  <path
     d="m 821.13,888.4101 1.85,1.07 c 0,0 4.29,-3.45 8.57,-6.92 4.28,-3.47 8.41,-6.86 8.48,-7 0.12,-0.38 1.79,-4.74 1.4,-5 -0.2,-0.13 -1.08,-1.91 -2.69,-4 -11.48,-3.22 -4.17,4.75 -3.2,5.11 0,0 -14,-3.2 -14.74,12 a 18,18 0 0 0 0.33,4.74 z"
     id="path181"
     inkscape:connector-curvature="0"
     style="opacity:0.1" />
  <path
     d="m 835.28,894.8901 2.44,1.41 24.73,0.64 a 50,50 0 0 0 8.76,4.21 7.66,7.66 0 0 0 1.24,0.28 58.55,58.55 0 0 0 6.89,0.13 c 1.9,0 3.36,-0.13 3.36,-0.13 0,0 -1.17,-31.2 -2,-34.48 -0.42,-1.57 -2.5,-1.22 -4.54,-0.44 a 30,30 0 0 0 -4.43,2.24 c 0,0 -10.51,1 -12.18,1.93 -1.67,0.93 -6.4,-0.52 -9.35,0 -2.95,0.52 -8.2,-3.47 -8.2,-3.47 -14.36,-4.74 -6.28,4.1 -5.26,4.48 0,0 -14,-3.2 -14.73,12 -0.73,15.2 13.27,11.2 13.27,11.2 z"
     id="path183"
     inkscape:connector-curvature="0"
     style="fill:#3f3d56" />
  <path
     d="m 871.04,882.8101 c 0.27,6.46 5.3,14.48 8.3,18.72 1.9,0 3.36,-0.13 3.36,-0.13 0,0 -1.17,-31.2 -2,-34.48 -0.42,-1.57 -2.5,-1.22 -4.54,-0.44 -2.53,4.65 -5.34,11.13 -5.12,16.33 z"
     id="path185"
     inkscape:connector-curvature="0"
     style="fill:#565387" />
  <path
     d="m 871.04,882.8101 c 0.27,6.46 5.3,14.48 8.3,18.72 1.9,0 3.36,-0.13 3.36,-0.13 0,0 -1.17,-31.2 -2,-34.48 -0.42,-1.57 -2.5,-1.22 -4.54,-0.44 -2.53,4.65 -5.34,11.13 -5.12,16.33 z"
     id="path187"
     inkscape:connector-curvature="0"
     style="opacity:0.1" />
  <path
     d="m 866.81,883.6701 c 1.7,6.23 1.68,13.22 4.4,17.45 a 7.66,7.66 0 0 0 1.24,0.28 58.55,58.55 0 0 0 6.89,0.13 c 1.9,0 3.36,-0.13 3.36,-0.13 0,0 -1.17,-31.2 -2,-34.48 -0.42,-1.57 -2.5,-1.22 -4.54,-0.44 a 30,30 0 0 0 -4.43,2.24 c 0,0 -7.1,6.97 -4.92,14.95 z"
     id="path189"
     inkscape:connector-curvature="0"
     style="opacity:0.05" />
  <path
     d="m 781.48,820.4401 c 0,0 12.29,4 22.7,18.16 z"
     id="path191"
     inkscape:connector-curvature="0"
     style="opacity:0.1" />
  <g
     id="g197"
     style="opacity:0.1"
     transform="translate(0,205.99005)">
    <path
       d="m 929.41,556.77 c 0,0.1 0,0.19 -0.07,0.28 a 10.86,10.86 0 0 1 -0.43,1.07 8.1,8.1 0 0 1 0.5,-1.35 z"
       transform="translate(-48.1,-96.1)"
       id="path193"
       inkscape:connector-curvature="0" />
    <path
       d="m 859.9,550.56 a 12,12 0 0 1 1,-2.59 c -0.07,0.22 -0.13,0.44 -0.19,0.67 -0.65,2.79 -0.11,5.71 0.57,8.49 0.35,1.44 0.83,3 2.07,3.8 1.91,1.22 4.86,0.16 6.42,1.81 1,1 1,2.91 2.33,3.55 a 2.58,2.58 0 0 0 1.53,0.18 c 3.4,-0.48 5.38,-4.33 8.65,-5.39 a 8.67,8.67 0 0 1 5.73,0.5 4.17,4.17 0 0 1 1.9,1.22 c 1.09,1.41 0.33,3.5 0.83,5.21 0.71,2.38 3.55,3.32 6,3.64 2.45,0.32 5.23,0.48 6.88,2.34 a 6.27,6.27 0 0 1 1.22,5 3.78,3.78 0 0 0 0,1.83 c 0.68,1.92 4,1.64 4.87,0.12 0.64,-1.1 0.44,-2 1.94,-2.33 a 6.44,6.44 0 0 1 3.14,0.55 23.26,23.26 0 0 0 8.28,1.24 11,11 0 0 0 6.49,-2 7.54,7.54 0 0 0 2,-2.42 8.21,8.21 0 0 1 -2.77,4.34 11,11 0 0 1 -6.49,2 23,23 0 0 1 -8.3,-1.32 6.32,6.32 0 0 0 -3.14,-0.54 c -1.49,0.3 -1.3,1.22 -1.94,2.32 -0.87,1.52 -4.19,1.81 -4.87,-0.11 a 4,4 0 0 1 0,-1.84 6.27,6.27 0 0 0 -1.22,-5 c -1.65,-1.86 -4.42,-2 -6.88,-2.34 -2.46,-0.34 -5.3,-1.26 -6,-3.64 -0.51,-1.71 0.26,-3.8 -0.84,-5.21 a 4.19,4.19 0 0 0 -1.9,-1.22 8.67,8.67 0 0 0 -5.73,-0.5 c -3.27,1.06 -5.25,4.91 -8.65,5.39 a 2.58,2.58 0 0 1 -1.53,-0.18 c -1.29,-0.64 -1.34,-2.5 -2.33,-3.55 -1.56,-1.65 -4.51,-0.58 -6.42,-1.81 -1.24,-0.8 -1.72,-2.36 -2.07,-3.79 -0.69,-2.71 -1.23,-5.63 -0.58,-8.42 z"
       transform="translate(-48.1,-96.1)"
       id="path195"
       inkscape:connector-curvature="0" />
  </g>
  <path
     d="m 883.3,763.02005 c -2.35,3.17 -5,6.1 -7.11,9.45 -2.11,3.35 -3.54,7.27 -3.11,11.19 2.15,-2.2 3.13,-5.25 4.49,-8 2.29,-4.68 5.72,-8.65 8.62,-13 0.55,-0.82 4.09,-5.57 2.3,-5.8 -1.48,-0.17 -4.39,5.08 -5.19,6.16 z"
     id="path199"
     inkscape:connector-curvature="0"
     style="opacity:0.1" />
</svg>
