<?xml version="1.0" encoding="UTF-8" standalone="no"?>
<svg
   xmlns:dc="http://purl.org/dc/elements/1.1/"
   xmlns:cc="http://creativecommons.org/ns#"
   xmlns:rdf="http://www.w3.org/1999/02/22-rdf-syntax-ns#"
   xmlns:svg="http://www.w3.org/2000/svg"
   xmlns="http://www.w3.org/2000/svg"
   xmlns:sodipodi="http://sodipodi.sourceforge.net/DTD/sodipodi-0.dtd"
   xmlns:inkscape="http://www.inkscape.org/namespaces/inkscape"
   id="e6d15d18-a685-4480-ac2b-bd578043a679"
   data-name="Layer 1"
   width="1041.3199"
   height="1041.3199"
   viewBox="0 0 1041.32 1041.32"
   version="1.1"
   sodipodi:docname="ready-2.svg"
   inkscape:version="0.92.2 5c3e80d, 2017-08-06">
  <metadata
     id="metadata4176">
    <rdf:RDF>
      <cc:Work
         rdf:about="">
        <dc:format>image/svg+xml</dc:format>
        <dc:type
           rdf:resource="http://purl.org/dc/dcmitype/StillImage" />
        <dc:title>programmer</dc:title>
      </cc:Work>
    </rdf:RDF>
  </metadata>
  <defs
     id="defs4174" />
  <sodipodi:namedview
     pagecolor="#ffffff"
     bordercolor="#666666"
     borderopacity="1"
     objecttolerance="10"
     gridtolerance="10"
     guidetolerance="10"
     inkscape:pageopacity="0"
     inkscape:pageshadow="2"
     inkscape:window-width="1028"
     inkscape:window-height="665"
     id="namedview4172"
     showgrid="false"
     inkscape:zoom="0.39661201"
     inkscape:cx="520.65997"
     inkscape:cy="473.78334"
     inkscape:window-x="123"
     inkscape:window-y="6"
     inkscape:window-maximized="0"
     inkscape:current-layer="e6d15d18-a685-4480-ac2b-bd578043a679" />
  <title
     id="title4093">programmer</title>
  <path
     d="m 961.48,675.35997 q -1.74,3.75 -3.47,7.4 -2.7,5.67 -5.33,11.12 c -0.78,1.61 -1.56,3.19 -2.32,4.77 -8.6,17.57 -16.63,33.11 -23.45,45.89 A 73.21,73.21 0 0 1 863.1,783.24 l -151.65,1.65 h -1.6 l -13,0.14 -11.12,0.12 -34.1,0.37 h -1.38 l -17.36,0.19 h -0.53 l -107,1.16 -95.51,1 -11.11,0.12 -69,0.75 h -0.08 l -44.75,0.48 h -0.48 l -141.5,1.53 -42.33,0.46 a 88,88 0 0 1 -10.79,-0.54 v 0 c -1.22,-0.14 -2.44,-0.3 -3.65,-0.49 A 87.38,87.38 0 0 1 54.87,762.64 C 36.66,742.60997 23.41,719.23997 14.51,693.87997 q -1.93,-5.49 -3.6,-11.12 c -30.81,-104.15 6.75,-238.52 74.35,-328.44 q 4.25,-5.64 8.64,-11 l 0.07,-0.08 c 20.79,-25.52 44.1,-46.84 68.93,-62 44,-26.91 92.75,-34.49 140.7,-11.9 40.57,19.12 78.45,28.11 115.17,30.55 3.71,0.24 7.42,0.42 11.11,0.53 84.23,2.65 163.17,-27.7 255.87,-47.29 3.69,-0.78 7.39,-1.55 11.12,-2.28 66.13,-13.16 139.49,-20.1 226.73,-5.51 a 189.09,189.09 0 0 1 26.76,6.4 q 5.77,1.86 11.12,4 c 41.64,16.94 64.35,48.24 74,87.46 q 1.37,5.46 2.37,11.11 c 17.11,94.34 -33,228.16 -76.37,321.05 z"
     id="path4095"
     inkscape:connector-curvature="0"
     style="fill:#f2f2f2" />
  <path
     d="m 497.02,682.75997 a 95.22,95.22 0 0 1 -1.87,11.12 h 93.7 v -11.12 z m -78.25,62.81 11.11,-0.09 v -27.47 c -3.81,-0.17 -7.52,-0.34 -11.11,-0.52 z m -232.92,-62.81 v 11.12 h 198.5 v -11.12 z m 849.68,-339.52 h -74 v -87.49 q -5.35,-2.17 -11.12,-4 v 91.49 H 696.87 v -92.42 c -3.73,0.73 -7.43,1.5 -11.12,2.28 v 90.14 H 429.88 v -42.85 c -3.69,-0.11 -7.4,-0.29 -11.11,-0.53 v 43.38 H 162.9 v -62 c -24.83,15.16 -48.14,36.48 -68.93,62 H 93.9 v 0.08 q -4.4,5.4 -8.64,11 h 8.64 v 328.44 h -83 q 1.66,5.63 3.6,11.12 H 93.89 V 787.5 a 87,87 0 0 0 12.2,2.79 c 1.21,0.19 2.43,0.35 3.65,0.49 v 0 a 88,88 0 0 0 10.79,0.54 l 42.33,-0.46 V 693.85997 H 418.77 V 788.07 l 11.11,-0.12 V 693.87997 H 685.75 V 785.24 l 11.12,-0.12 v -91.24003 h 253.49 v 4.77 c 0.76,-1.58 1.54,-3.16 2.32,-4.77 q 2.63,-5.45 5.33,-11.12 1.73,-3.64 3.47,-7.4 v -321 h 76.42 q -1.01,-5.69 -2.37,-11.12 z m -872.63,339.52 v -328.44 h 255.87 v 328.44 z m 267,0 v -328.44 h 255.85 v 328.44 z m 520.48,0 H 696.87 v -328.44 h 253.49 z"
     id="path4097"
     inkscape:connector-curvature="0"
     style="opacity:0.1" />
  <polygon
     points="152.74,510.65 246.34,509.87 248.34,509.86 249,509.85 251,509.82 295.94,509.45 297.95,509.44 298.59,509.43 300.59,509.42 315,509.3 315.38,509.29 350.93,508.99 351.22,508.99 628.62,506.65 635.41,506.6 636.09,506.6 641.27,506.55 678.92,506.24 680.92,506.21 682.77,506.19 683.73,506.19 695.44,506.1 697.76,506.07 700.87,506.05 710.62,505.96 726.09,505.83 728.09,505.81 731.57,505.79 732.22,505.79 806.93,505.15 863.09,533.65 863.09,546.65 711.17,548.05 709.55,548.08 651.81,548.61 650.43,548.63 632.88,548.78 632.36,548.78 525.38,549.77 349.77,551.4 349.62,551.4 304.97,551.82 304.49,551.83 106.09,553.65 106.09,538.65 "
     id="polygon4099"
     style="fill:#65617d"
     transform="translate(0,237.14997)" />
  <polygon
     points="152.74,510.65 246.34,509.87 248.34,509.86 249,509.85 251,509.82 295.94,509.45 297.95,509.44 298.59,509.43 300.59,509.42 315,509.3 315.38,509.29 350.93,508.99 351.22,508.99 628.62,506.65 635.41,506.6 636.09,506.6 641.27,506.55 678.92,506.24 680.92,506.21 682.77,506.19 683.73,506.19 695.44,506.1 697.76,506.07 700.87,506.05 710.62,505.96 726.09,505.83 728.09,505.81 731.57,505.79 732.22,505.79 806.93,505.15 863.09,533.65 863.09,546.65 711.17,548.05 709.55,548.08 651.81,548.61 650.43,548.63 632.88,548.78 632.36,548.78 525.38,549.77 349.77,551.4 349.62,551.4 304.97,551.82 304.49,551.83 106.09,553.65 106.09,538.65 "
     id="polygon4101"
     style="opacity:0.2"
     transform="translate(0,237.14997)" />
  <path
     d="m 296.1,720.80997 v 24.49 a 6.13,6.13 0 0 1 -3.5,5.54003 6,6 0 0 1 -2.5,0.6 l -34.9,0.74 a 6,6 0 0 1 -2.7,-0.57 6.12,6.12 0 0 1 -3.57,-5.57003 v -25.23 z"
     id="path4103"
     inkscape:connector-curvature="0"
     style="fill:#3f3d56" />
  <path
     d="m 296.1,720.80997 v 24.49 a 6.13,6.13 0 0 1 -3.5,5.54003 6,6 0 0 1 -2.5,0.6 l -34.9,0.74 a 6,6 0 0 1 -2.7,-0.57 6.12,6.12 0 0 1 -3.57,-5.57003 v -25.23 z"
     id="path4105"
     inkscape:connector-curvature="0"
     style="opacity:0.1" />
  <path
     d="m 298.1,720.80997 v 24.49 a 6.13,6.13 0 0 1 -3.5,5.54003 6,6 0 0 1 -2.5,0.6 l -34.9,0.74 a 6,6 0 0 1 -2.7,-0.57 6.12,6.12 0 0 1 -3.57,-5.57003 v -25.23 z"
     id="path4107"
     inkscape:connector-curvature="0"
     style="fill:#3f3d56" />
  <rect
     x="680.91998"
     y="720.79999"
     width="47.169998"
     height="31.5"
     id="rect4109"
     style="fill:#3f3d56" />
  <rect
     x="680.91998"
     y="720.79999"
     width="47.169998"
     height="31.5"
     id="rect4111"
     style="opacity:0.1" />
  <rect
     x="678.91998"
     y="720.79999"
     width="47.169998"
     height="31.5"
     id="rect4113"
     style="fill:#3f3d56" />
  <polygon
     points="298.09,483.65 298.09,488.62 250.92,489.88 250.92,483.65 "
     id="polygon4115"
     style="opacity:0.1"
     transform="translate(0,237.14997)" />
  <path
     d="m 381.35,549.50997 v 168.2 a 4,4 0 0 1 -3.85,3.95 l -191.65,5.1 h -0.05 a 4,4 0 0 1 -3.95,-3.95 v -173.3 a 4,4 0 0 1 3.95,-3.95 h 191.6 a 4,4 0 0 1 3.95,3.95 z"
     id="path4117"
     inkscape:connector-curvature="0"
     style="fill:#65617d" />
  <path
     d="m 185.85,545.55997 v 181.2 h -0.05 a 4,4 0 0 1 -3.95,-3.95 v -173.3 a 4,4 0 0 1 3.95,-3.95 z"
     id="path4119"
     inkscape:connector-curvature="0"
     style="opacity:0.1" />
  <polygon
     points="194.59,319.15 372.09,319.15 372.09,467.4 194.59,471.4 "
     id="polygon4121"
     style="fill:#6c63ff"
     transform="translate(0,237.14997)" />
  <polygon
     points="726.09,483.65 726.09,490.06 678.92,488.8 678.92,483.65 "
     id="polygon4123"
     style="opacity:0.1"
     transform="translate(0,237.14997)" />
  <path
     d="m 788.35,549.50997 v 173.3 a 4,4 0 0 1 -4,3.95 v 0 l -191.69,-5.1 a 4,4 0 0 1 -3.85,-3.95 v -168.2 a 4,4 0 0 1 3.95,-3.95 h 191.6 a 4,4 0 0 1 3.99,3.95 z"
     id="path4125"
     inkscape:connector-curvature="0"
     style="fill:#65617d" />
  <path
     d="m 788.35,549.50997 v 173.3 a 4,4 0 0 1 -4,3.95 v 0 -181.2 0 a 4,4 0 0 1 4,3.95 z"
     id="path4127"
     inkscape:connector-curvature="0"
     style="opacity:0.1" />
  <polygon
     points="775.59,319.15 598.09,319.15 598.09,467.4 775.59,471.4 "
     id="polygon4129"
     style="fill:#6c63ff"
     transform="translate(0,237.14997)" />
  <path
     d="m 583.85,549.50997 v 168.2 a 4,4 0 0 1 -3.85,3.95 l -191.65,5.1 v 0 a 4,4 0 0 1 -4,-3.95 v -173.3 a 4,4 0 0 1 3.95,-3.95 h 191.6 a 4,4 0 0 1 3.95,3.95 z"
     id="path4131"
     inkscape:connector-curvature="0"
     style="fill:#65617d" />
  <polygon
     points="397.09,319.15 574.59,319.15 574.59,467.4 397.09,471.4 "
     id="polygon4133"
     style="fill:#6c63ff"
     transform="translate(0,237.14997)" />
  <polygon
     points="651.81,548.61 650.43,548.63 632.88,548.78 632.36,548.78 525.38,549.77 349.77,551.4 349.62,551.4 304.97,551.82 304.49,551.83 106.09,553.65 106.09,538.65 308.6,537.32 309.08,537.32 350.07,537.04 350.26,537.04 633.34,535.17 633.63,535.17 633.8,535.16 634.27,535.16 639.06,535.13 640.52,535.13 715.01,534.63 719.41,534.61 720.39,534.6 863.09,533.65 863.09,546.65 711.17,548.05 709.55,548.08 "
     id="polygon4135"
     style="opacity:0.1"
     transform="translate(0,237.14997)" />
  <circle
     cx="487.26001"
     cy="535.29999"
     r="51.330002"
     id="circle4137"
     style="fill:#fbbebe" />
  <path
     d="m 538.6,614.30997 c 0,0 -99.5,12 -90,0 3.44,-4.34 4.39,-17.2 4.2,-31.85 -0.06,-4.45 -0.22,-9.06 -0.45,-13.65 -1.1,-22 -3.75,-43.5 -3.75,-43.5 0,0 87,-41 77,-8.5 -4,13.13 -2.69,31.57 0.35,48.88 0.89,5.05 1.92,10 3,14.7 a 344.67,344.67 0 0 0 9.65,33.92 z"
     id="path4139"
     inkscape:connector-curvature="0"
     style="fill:#fbbebe" />
  <path
     d="m 506.13,610.23997 c 11.51,-2.13 23.7,-6 34.53,-1.54 2.85,1.17 5.47,2.88 8.39,3.86 2.92,0.98 6.12,1.22 9.16,1.91 10.68,2.42 19.34,10.55 24.9,20 5.56,9.45 8.44,20.14 11.26,30.72 l 6.9,25.83 c 6,22.45 12,45.09 13.39,68.30003 a 2437.62,2437.62 0 0 1 -250.84,1.43 c 5.44,-10.34 11,-21.31003 10.54,-33.00003 -0.46,-11.69 -7.19,-23.22 -4.76,-34.74 1.55,-7.34 6.57,-13.39 9.64,-20.22 8.75,-19.52 1.94,-45.79 17.32,-60.65 6.92,-6.68 17,-9.21 26.63,-8.89 12.28,0.41 24.85,4.24 37,6.11 15.56,2.36 30.26,3.76 45.94,0.88 z"
     id="path4141"
     inkscape:connector-curvature="0"
     style="fill:#ff6584" />
  <path
     d="m 637.03,721.40997 -0.1,1.43 v 0.1 l -0.17,2.3 -1.33,18.51 -1.61,22.30003 -0.46,6.28 -1,13.44 v 0.17 l -107,1 -175.59,1.9 v 0.84 h -0.14 v -0.84 -0.28 l 0.45,-14.36 0.86,-28.06003 0.74,-23.79 0.07,-2.37 a 10.53,10.53 0 0 1 11.42,-10.17 c 4.72,0.4 10.85,0.89 18.18,1.41 l 3,0.22 c 42.33,2.94 120.56,6.74 199.5,2 1.66,-0.09 3.33,-0.19 5,-0.31 12.24,-0.77 24.47,-1.76 36.58,-3 a 10.53,10.53 0 0 1 11.6,11.23 z"
     id="path4143"
     inkscape:connector-curvature="0"
     style="opacity:0.1" />
  <path
     d="m 349.74,789.68 v -0.84 l 175.62,-1.91 107,-1 h 0.3 v -0.17 l 1,-13.44 0.43,-6 1.64,-22.61003 1.29,-17.9 v -0.44 a 10.62,10.62 0 0 0 -0.11,-2.47 0.3,0.3 0 0 0 0,-0.1 10.39,10.39 0 0 0 -2,-4.64 10.54,10.54 0 0 0 -9.42,-4 c -12.11,1.24 -24.34,2.23 -36.58,3 -1.67,0.12 -3.34,0.22 -5,0.31 -78.94,4.69 -157.17,0.89 -199.5,-2 l -3,-0.22 c -7.33,-0.52 -13.46,-1 -18.18,-1.41 a 10.54,10.54 0 0 0 -11.24,8.53 11,11 0 0 0 -0.18,1.64 l -0.68,22.16 -0.93,28.07003 -0.44,14.36 v 0.28 0.84 z"
     id="path4145"
     inkscape:connector-curvature="0"
     style="fill:#3f3d56" />
  <path
     d="m 637.33,728.41997 -1.23,15.33 -1.83,22.85003 -0.46,5.72 -1,12.81 -0.06,0.64 v 0.17 0 l -0.15,1.48 0.11,-1.48 h -0.29 l -107,1 -175.65,1.9 v -0.28 l 0.49,-14.36 1,-28.06003 0.64,-18.65 a 6.36,6.36 0 0 1 3.06,-5.25 6.25,6.25 0 0 1 3.78,-0.9 c 2.1,0.17 4.68,0.37 7.69,0.59 4.89,0.36 10.92,0.78 17.94,1.22 13,0.82 29.31,1.7 48,2.42 52,2 122.2,2.67 188.88,-3.17 3,-0.26 6.1,-0.55 9.13,-0.84 a 6.26,6.26 0 0 1 3.48,0.66 5.16,5.16 0 0 1 0.86,0.54 6.14,6.14 0 0 1 2,2.46 3.56,3.56 0 0 1 0.25,0.61 6.28,6.28 0 0 1 0.36,2.59 z"
     id="path4147"
     inkscape:connector-curvature="0"
     style="opacity:0.1" />
  <path
     d="m 298.1,742.10997 v 3.19 a 6.13,6.13 0 0 1 -3.5,5.54003 l -40.1,0.77 a 6.12,6.12 0 0 1 -3.57,-5.57003 v -3 z"
     id="path4149"
     inkscape:connector-curvature="0"
     style="opacity:0.1" />
  <polygon
     points="298.59,515.57 246.34,516.57 246.34,507.9 298.59,506.9 "
     id="polygon4151"
     style="fill:#3f3d56"
     transform="translate(0,237.14997)" />
  <polygon
     points="298.59,515.57 246.34,516.57 246.34,507.9 298.59,506.9 "
     id="polygon4153"
     style="opacity:0.1"
     transform="translate(0,237.14997)" />
  <polygon
     points="300.59,515.57 248.34,516.57 248.34,507.9 300.59,506.9 "
     id="polygon4155"
     style="fill:#3f3d56"
     transform="translate(0,237.14997)" />
  <path
     d="m 679.22,744.10997 v 3.19 a 6.13,6.13 0 0 0 3.5,5.54003 l 40.1,0.77 a 6.12,6.12 0 0 0 3.57,-5.57003 v -3 z"
     id="path4157"
     inkscape:connector-curvature="0"
     style="opacity:0.1" />
  <polygon
     points="678.72,517.57 730.97,518.57 730.97,509.9 678.72,508.9 "
     id="polygon4159"
     style="opacity:0.1"
     transform="translate(0,237.14997)" />
  <polygon
     points="676.72,517.57 728.97,518.57 728.97,509.9 676.72,508.9 "
     id="polygon4161"
     style="fill:#3f3d56"
     transform="translate(0,237.14997)" />
  <path
     d="m 454.79,551.02997 c 0.08,7 -3.16,13.6 -5.91,20.07 a 163.49,163.49 0 0 0 -12.66,74.71 c 0.73,11 2.58,22 0.73,32.9 -1.85,10.9 -8.43,21.77 -19,24.9 17.53,10.45 41.26,9.35 57.76,-2.66 8.79,-6.4 15.34,-15.33 21.75,-24.11 a 97.86,97.86 0 0 1 -13.31,44.75 103.43,103.43 0 0 0 73.51,-40.82 c 4.31,-5.81 8.06,-12.19 9.72,-19.23 3.09,-13 -1.22,-26.51 -4.51,-39.5 a 266.06,266.06 0 0 1 -6.17,-33 c -0.43,-3.56 -0.78,-7.22 0.1,-10.7 1,-4.07 3.67,-7.51 5.64,-11.22 5.6,-10.54 5.73,-23.3 2.86,-34.88 -2.87,-11.58 -8.49,-22.26 -14.06,-32.81 -4.46,-8.46 -9.3,-17.31 -17.46,-22.28 -5.1,-3.1 -11,-4.39 -16.88,-5.64 l -25.37,-5.43 c -5.55,-1.19 -11.26,-2.38 -16.87,-1.51 -9.47,1.48 -16.14,8.32 -22,15.34 -4.59,5.46 -15.81,15.71 -16.6,22.86 -0.72,6.59 5.1,17.63 6.09,24.58 1.3,9 2.22,6 7.3,11.52 3.21,3.42 5.28,7.37 5.34,12.16 z"
     id="path4163"
     inkscape:connector-curvature="0"
     style="fill:#3f3d56" />
  <path
     d="m 300.26,570.73997 h -99.6 a 0.5,0.5 0 0 1 0,-1 h 99.6 a 0.5,0.5 0 0 1 0,1 z"
     id="path4165"
     inkscape:connector-curvature="0"
     style="fill:#f2f2f2" />
  <path
     d="m 300.26,579.73997 h -99.6 a 0.5,0.5 0 0 1 0,-1 h 99.6 a 0.5,0.5 0 0 1 0,1 z"
     id="path4167"
     inkscape:connector-curvature="0"
     style="fill:#f2f2f2" />
  <path
     d="m 300.26,588.73997 h -99.6 a 0.5,0.5 0 0 1 0,-1 h 99.6 a 0.5,0.5 0 0 1 0,1 z"
     id="path4169"
     inkscape:connector-curvature="0"
     style="fill:#f2f2f2" />
</svg>
